<svg width="18" height="15" viewBox="0 0 18 15" fill="none" xmlns="http://www.w3.org/2000/svg">
<g clip-path="url(#clip0_0_410)">
<path d="M11.6 0.199995C13.4 -0.300005 14.8 0.499995 15.4 1.39999C16.1 1.19999 16.8 0.899995 17.5 0.699995C17.5 1.59999 16.9 2.2 16.6 2.49999C17.3 2.59999 18 1.89999 18 1.89999C17.8 2.89999 16.9 3.7 16.3 3.9C16.1 10.7 13 15.1 5.7 15C5.1 15 5.8 15 5.2 15C4.8 15 0.8 14.5 0 13.1C2.4 13.3 4.1 12.7 5 11.9C4 11.6 2.1 11.5 1.8 9C2.2 9.1 2.4 9.2 3.1 9.1C1.8 8.3 0.4 7.5 0.5 5.29999C0.8 5.6 1.6 5.79999 1.9 5.79999C1.1 5.6 -0.2 2.49999 0.9 0.899995C2.8 2.79999 4.9 4.49999 8.5 4.69999C8.7 2.29999 9.7 0.799995 11.6 0.199995Z" fill="#83B3D3"/>
</g>
<defs>
<clipPath id="clip0_0_410">
<rect width="18" height="15" fill="white"/>
</clipPath>
</defs>
</svg>
